# xmcd
#
# Track frame offsets: 
#        150
#        12539
#        22629
#        34081
#        44579
#        57698
#        68512
#        79121
#        91754
#        101503
#        116151
#
# Disc length: 1692 seconds
#
# Revision: 0
# Processed by: cddbd v1.5.2PL0 Copyright (c) Steve Scherf et al.
# Submitted via: ExactAudioCopy v0.95b4
#
DISCID=86069a0b
DTITLE=The Beatles  - Live At The Hollywood Bowl 1964 (US Mono LP)(Gen
DTITLE=uine Acetate Mix) 
DYEAR=1900
DGENRE=
TTITLE0=You Can't Do That
TTITLE1=All My Loving
TTITLE2=She Loves You
TTITLE3=Things We Said Today
TTITLE4=Roll Over Beethoven
TTITLE5=Can't Buy me Love
TTITLE6=If I Fell
TTITLE7=I Want To Hold Your Hand
TTITLE8=Boys
TTITLE9=A Hard Day's Night
TTITLE10=Long Tall Sally
EXTD=
EXTT0=
EXTT1=
EXTT2=
EXTT3=
EXTT4=
EXTT5=
EXTT6=
EXTT7=
EXTT8=
EXTT9=
EXTT10=
PLAYORDER=
